<svg width="45" height="45" viewBox="0 0 45 45" fill="none" xmlns="http://www.w3.org/2000/svg">
<g id=" close">
<path id="Icon" fill-rule="evenodd" clip-rule="evenodd" d="M25.1517 22.5005L33.2011 14.4511C33.9342 13.718 33.9342 12.533 33.2011 11.7998C32.468 11.0667 31.283 11.0667 30.5498 11.7998L22.5005 19.8492L14.4511 11.7998C13.718 11.0667 12.533 11.0667 11.7998 11.7998C11.0667 12.533 11.0667 13.718 11.7998 14.4511L19.8492 22.5005L11.7998 30.5498C11.0667 31.283 11.0667 32.468 11.7998 33.2011C12.1655 33.5667 12.6455 33.7505 13.1255 33.7505C13.6055 33.7505 14.0855 33.5667 14.4511 33.2011L22.5005 25.1517L30.5498 33.2011C30.9155 33.5667 31.3955 33.7505 31.8755 33.7505C32.3555 33.7505 32.8355 33.5667 33.2011 33.2011C33.9342 32.468 33.9342 31.283 33.2011 30.5498L25.1517 22.5005Z" fill="#2E3A59"/>
</g>
</svg>
