<svg width="21" height="27" viewBox="0 0 21 27" fill="none" xmlns="http://www.w3.org/2000/svg">
<path fill-rule="evenodd" clip-rule="evenodd" d="M10.2393 18.6129C10.4857 18.6129 10.7337 18.6756 10.9568 18.801L17.792 22.6671V3.77875C17.792 3.48562 17.6155 3.29167 17.5003 3.29167H3.50032C3.38366 3.29167 3.20866 3.48562 3.20866 3.77875V22.5913L9.48824 18.8215C9.72012 18.6829 9.9797 18.6129 10.2393 18.6129ZM1.75033 26.625C1.50241 26.625 1.25449 26.5623 1.03137 26.4354C0.574909 26.1773 0.291992 25.6917 0.291992 25.1667V3.77875C0.291992 1.90188 1.73137 0.375 3.50033 0.375H17.5003C19.2693 0.375 20.7087 1.90188 20.7087 3.77875V25.1667C20.7087 25.6858 20.433 26.1656 19.9853 26.4267C19.5362 26.6892 18.9849 26.6935 18.5328 26.4369L10.2612 21.7585L2.49991 26.4179C2.26949 26.555 2.00991 26.625 1.75033 26.625Z" fill="#25282B"/>
</svg>
