<svg width="39" height="33" viewBox="0 0 39 33" fill="none" xmlns="http://www.w3.org/2000/svg">
<path fill-rule="evenodd" clip-rule="evenodd" d="M10.5373 4.25C8.91727 4.25 7.39852 4.87625 6.26227 6.01437C3.90352 8.37687 3.90352 12.2225 6.26414 14.5887L19.4998 27.8469L32.7373 14.5887C35.0979 12.2225 35.0979 8.37687 32.7373 6.01437C30.4648 3.73625 26.4598 3.74 24.1873 6.01437L20.8273 9.38C20.1223 10.0869 18.8773 10.0869 18.1723 9.38L14.8123 6.0125C13.676 4.87625 12.1591 4.25 10.5373 4.25ZM19.4998 32.375C19.003 32.375 18.5248 32.1781 18.1742 31.8237L3.60922 17.2362C-0.208281 13.4112 -0.208281 7.18812 3.60922 3.36312C5.45422 1.51812 7.91422 0.5 10.5373 0.5C13.1605 0.5 15.6223 1.51812 17.4655 3.36312L19.4998 5.40125L21.5342 3.365C23.3792 1.51812 25.8392 0.5 28.4642 0.5C31.0855 0.5 33.5473 1.51812 35.3905 3.36312C39.2098 7.18812 39.2098 13.4112 35.3923 17.2362L20.8273 31.8256C20.4748 32.1781 19.9986 32.375 19.4998 32.375Z" fill="#2F80ED"/>
</svg>
