<svg width="21" height="27" viewBox="0 0 21 27" fill="none" xmlns="http://www.w3.org/2000/svg">
<path fill-rule="evenodd" clip-rule="evenodd" d="M13.417 6.20833C13.417 4.59979 12.1089 3.29167 10.5003 3.29167C8.89178 3.29167 7.58366 4.59979 7.58366 6.20833C7.58366 7.81688 8.89178 9.125 10.5003 9.125C12.1089 9.125 13.417 7.81688 13.417 6.20833ZM16.3337 6.20833C16.3337 9.42542 13.7174 12.0417 10.5003 12.0417C7.28324 12.0417 4.66699 9.42542 4.66699 6.20833C4.66699 2.99125 7.28324 0.375 10.5003 0.375C13.7174 0.375 16.3337 2.99125 16.3337 6.20833ZM0.291992 25.1667C0.291992 19.5375 4.87262 14.9583 10.5003 14.9583C16.128 14.9583 20.7087 19.5375 20.7087 25.1667C20.7087 25.9717 20.0568 26.625 19.2503 26.625C18.4439 26.625 17.792 25.9717 17.792 25.1667C17.792 21.146 14.521 17.875 10.5003 17.875C6.4797 17.875 3.20866 21.146 3.20866 25.1667C3.20866 25.9717 2.55678 26.625 1.75033 26.625C0.943867 26.625 0.291992 25.9717 0.291992 25.1667Z" fill="#25282B"/>
</svg>
