<svg width="27" height="27" viewBox="0 0 27 27" fill="none" xmlns="http://www.w3.org/2000/svg">
<path fill-rule="evenodd" clip-rule="evenodd" d="M3.29167 12.0417C3.29167 7.21604 7.21604 3.29167 12.0417 3.29167C16.8673 3.29167 20.7917 7.21604 20.7917 12.0417C20.7917 16.8673 16.8673 20.7917 12.0417 20.7917C7.21604 20.7917 3.29167 16.8673 3.29167 12.0417ZM26.1977 24.1356L21.2467 19.1831C22.7823 17.2085 23.7083 14.7338 23.7083 12.0417C23.7083 5.60896 18.4744 0.375 12.0417 0.375C5.60896 0.375 0.375 5.60896 0.375 12.0417C0.375 18.4744 5.60896 23.7083 12.0417 23.7083C14.7338 23.7083 17.2085 22.7823 19.1831 21.2467L24.1356 26.1977C24.42 26.4821 24.7933 26.625 25.1667 26.625C25.54 26.625 25.9133 26.4821 26.1977 26.1977C26.7679 25.6275 26.7679 24.7058 26.1977 24.1356Z" fill="#25282B"/>
</svg>
