<svg width="28" height="28" viewBox="0 0 28 28" fill="none" xmlns="http://www.w3.org/2000/svg">
<g clip-path="url(#clip0)">
<path d="M1.74994 1.90528C-0.450396 4.19078 -6.25327e-05 6.61862 -6.25327e-05 13.9943C-6.25327e-05 20.1193 -1.06873 26.2595 4.52427 27.705C6.27077 28.1541 21.7454 28.1541 23.4896 27.7026C25.8183 27.1018 27.7129 25.213 27.9719 21.9195C28.0081 21.4598 28.0081 6.53695 27.9708 6.06795C27.6954 2.55978 25.5359 0.537951 22.6904 0.128451C22.0383 0.0339511 21.9076 0.00595104 18.5616 0.000117708C6.6931 0.00595104 4.09144 -0.522549 1.74994 1.90528Z" fill="url(#paint0_linear)"/>
<path d="M13.9977 3.66231C9.76152 3.66231 5.73885 3.28547 4.20235 7.22881C3.56768 8.85747 3.65985 10.9726 3.65985 14.0013C3.65985 16.659 3.57468 19.1568 4.20235 20.7726C5.73535 24.7183 9.79068 24.3403 13.9953 24.3403C18.0519 24.3403 22.2344 24.7626 23.7895 20.7726C24.4254 19.1276 24.332 17.044 24.332 14.0013C24.332 9.96231 24.5549 7.35481 22.596 5.39714C20.6127 3.41381 17.9305 3.66231 13.993 3.66231H13.9977ZM13.0714 5.52547C21.9077 5.51147 23.0324 4.52914 22.4117 18.1756C22.1912 23.0021 18.5162 22.4725 13.9988 22.4725C5.76218 22.4725 5.52535 22.2368 5.52535 13.9966C5.52535 5.66081 6.17868 5.53014 13.0714 5.52314V5.52547ZM19.516 7.24164C18.8312 7.24164 18.2758 7.79697 18.2758 8.48181C18.2758 9.16664 18.8312 9.72197 19.516 9.72197C20.2009 9.72197 20.7562 9.16664 20.7562 8.48181C20.7562 7.79697 20.2009 7.24164 19.516 7.24164ZM13.9977 8.69181C11.0659 8.69181 8.68935 11.0695 8.68935 14.0013C8.68935 16.9331 11.0659 19.3096 13.9977 19.3096C16.9295 19.3096 19.3049 16.9331 19.3049 14.0013C19.3049 11.0695 16.9295 8.69181 13.9977 8.69181ZM13.9977 10.555C18.5535 10.555 18.5594 17.4476 13.9977 17.4476C9.44302 17.4476 9.43602 10.555 13.9977 10.555Z" fill="white"/>
</g>
<defs>
<linearGradient id="paint0_linear" x1="1.80363" y1="26.2117" x2="27.8267" y2="3.68909" gradientUnits="userSpaceOnUse">
<stop stop-color="#FFDD55"/>
<stop offset="0.5" stop-color="#FF543E"/>
<stop offset="1" stop-color="#C837AB"/>
</linearGradient>
<clipPath id="clip0">
<rect width="28" height="28" fill="white"/>
</clipPath>
</defs>
</svg>
