<svg width="523" height="490" viewBox="0 0 523 490" fill="none" xmlns="http://www.w3.org/2000/svg">
<mask id="mask0" mask-type="alpha" maskUnits="userSpaceOnUse" x="0" y="0" width="523" height="490">
<rect width="523" height="490" fill="#C4C4C4"/>
</mask>
<g mask="url(#mask0)">
<path d="M342.295 211.52L273.241 151.317C270.045 148.549 265.853 147.012 261.5 147.012C257.148 147.012 252.956 148.549 249.76 151.317L181.021 211.52H342.295Z" fill="#0084FF"/>
<path d="M406.676 211.52H116.32V327.785L211.001 395.379H311.994L406.676 327.785V211.52Z" fill="white"/>
<path d="M117.016 328.257L116.322 327.784V267.7L78.4492 300.758L117.016 328.257Z" fill="#0084FF"/>
<path d="M406.677 267.7V327.784L405.352 328.73L444.55 300.758L406.677 267.7Z" fill="#0084FF"/>
<path d="M78.4492 490.001H79.2698H441.646H443.729H444.549L311.996 395.38H211.003L78.4492 490.001Z" fill="#0084FF"/>
<path d="M78.4492 490V300.759L211.003 395.379L78.4492 490Z" fill="#F5F8FA"/>
<path d="M444.55 490V300.759L311.996 395.379L444.55 490Z" fill="#F5F8FA"/>
<path d="M261.498 237.649C248.568 237.649 235.929 241.242 225.178 247.972C214.427 254.702 206.048 264.268 201.099 275.46C196.151 286.652 194.857 298.967 197.379 310.849C199.902 322.73 206.128 333.644 215.271 342.21C224.414 350.776 236.063 356.609 248.744 358.973C261.426 361.336 274.57 360.123 286.516 355.487C298.462 350.851 308.672 343.001 315.855 332.928C323.039 322.856 326.873 311.014 326.873 298.899C326.873 290.856 325.182 282.891 321.897 275.46C318.611 268.029 313.796 261.277 307.725 255.589C301.655 249.902 294.448 245.39 286.516 242.312C278.584 239.234 270.083 237.649 261.498 237.649ZM289.609 284.261L259.733 321.011C259.124 321.752 258.342 322.353 257.447 322.767C256.551 323.181 255.567 323.397 254.568 323.399C253.575 323.404 252.594 323.197 251.699 322.794C250.804 322.391 250.019 321.802 249.404 321.072L233.452 302.023C232.924 301.388 232.535 300.661 232.307 299.885C232.078 299.108 232.016 298.297 232.122 297.498C232.228 296.699 232.501 295.928 232.926 295.227C233.35 294.527 233.918 293.912 234.596 293.418C235.966 292.418 237.703 291.97 239.426 292.171C240.279 292.271 241.102 292.527 241.85 292.924C242.597 293.322 243.253 293.854 243.781 294.489L254.438 307.229L279.149 276.604C279.673 275.961 280.327 275.42 281.074 275.014C281.82 274.607 282.645 274.342 283.501 274.234C284.357 274.126 285.227 274.177 286.062 274.384C286.897 274.591 287.68 274.95 288.367 275.441C289.054 275.931 289.631 276.544 290.065 277.243C290.499 277.943 290.782 278.716 290.897 279.518C291.013 280.32 290.958 281.135 290.737 281.917C290.516 282.7 290.133 283.433 289.609 284.077V284.261Z" fill="#0084FF"/>
<ellipse cx="492.92" cy="181.6" rx="20.92" ry="19.6" fill="#0084FF"/>
<path d="M381.289 122.5C381.289 133.019 372.178 141.6 360.869 141.6C349.56 141.6 340.449 133.019 340.449 122.5C340.449 111.982 349.56 103.4 360.869 103.4C372.178 103.4 381.289 111.982 381.289 122.5Z" stroke="#2181D9"/>
<path d="M89.41 58.8004C89.41 48.282 98.5212 39.7004 109.83 39.7004C121.139 39.7004 130.25 48.282 130.25 58.8004C130.25 69.3188 121.139 77.9004 109.83 77.9004C98.5212 77.9004 89.41 69.3188 89.41 58.8004Z" stroke="#CCE6FF"/>
<line x1="434.59" y1="87.6992" x2="470.2" y2="87.6992" stroke="#CCE6FF" stroke-linecap="round" stroke-linejoin="round"/>
<line x1="454.51" y1="102.399" x2="454.51" y2="69.0994" stroke="#CCE6FF" stroke-linecap="round" stroke-linejoin="round"/>
<line x1="36.1094" y1="93.6006" x2="0.499374" y2="93.6006" stroke="#2181D9" stroke-linecap="round" stroke-linejoin="round"/>
<line x1="16.1895" y1="78.9004" x2="16.1895" y2="112.2" stroke="#2181D9" stroke-linecap="round" stroke-linejoin="round"/>
<line x1="267.23" y1="48.5" x2="302.84" y2="48.5" stroke="#0084FF" stroke-linecap="round" stroke-linejoin="round"/>
<line x1="287.15" y1="63.2002" x2="287.15" y2="29.9002" stroke="#0084FF" stroke-linecap="round" stroke-linejoin="round"/>
<line x1="203.471" y1="132.801" x2="167.861" y2="132.801" stroke="#CCE6FF" stroke-linecap="round" stroke-linejoin="round"/>
<line x1="183.551" y1="118.101" x2="183.551" y2="151.401" stroke="#CCE6FF" stroke-linecap="round" stroke-linejoin="round"/>
</g>
</svg>
