<svg width="45" height="45" viewBox="0 0 45 45" fill="none" xmlns="http://www.w3.org/2000/svg">
<g id=" menu">
<path id="Icon" fill-rule="evenodd" clip-rule="evenodd" d="M7.4025 11.25H37.5956C38.5744 11.25 39.375 12.0506 39.375 13.0294V13.2206C39.375 14.1994 38.5744 15 37.5956 15H7.4025C6.42375 15 5.625 14.1994 5.625 13.2206V13.0294C5.625 12.0506 6.42375 11.25 7.4025 11.25ZM37.5956 20.625H7.4025C6.42375 20.625 5.625 21.4256 5.625 22.4044V22.5956C5.625 23.5744 6.42375 24.375 7.4025 24.375H37.5956C38.5744 24.375 39.375 23.5744 39.375 22.5956V22.4044C39.375 21.4256 38.5744 20.625 37.5956 20.625ZM37.5956 30H7.4025C6.42375 30 5.625 30.8006 5.625 31.7794V31.9706C5.625 32.9494 6.42375 33.75 7.4025 33.75H37.5956C38.5744 33.75 39.375 32.9494 39.375 31.9706V31.7794C39.375 30.8006 38.5744 30 37.5956 30Z" fill="#2E3A59"/>
</g>
</svg>
