<svg width="32" height="32" viewBox="0 0 32 32" fill="none" xmlns="http://www.w3.org/2000/svg">
<path fill-rule="evenodd" clip-rule="evenodd" d="M23.2001 29.3333C11.8774 29.3333 2.66673 20.1227 2.66673 8.8C2.66673 5.41734 5.41873 2.66667 8.80006 2.66667C9.14673 2.66667 9.48939 2.69601 9.82139 2.75334C10.1454 2.80534 10.4721 2.88801 10.7881 2.99734C11.2227 3.14801 11.5481 3.51201 11.6507 3.96001L13.4774 11.912C13.5774 12.3493 13.4507 12.808 13.1401 13.1333C12.9574 13.3227 12.9534 13.3267 11.3001 14.192C12.6387 17.0907 14.9654 19.4093 17.8067 20.7027C18.6721 19.048 18.6774 19.0427 18.8667 18.8613C19.1934 18.5493 19.6534 18.428 20.0894 18.524L28.0414 20.3493C28.4881 20.452 28.8521 20.7773 29.0027 21.2107C29.1121 21.5253 29.1934 21.8507 29.2481 22.1853C29.3041 22.5147 29.3334 22.856 29.3334 23.2C29.3334 26.5827 26.5827 29.3333 23.2001 29.3333Z" fill="#2E3A59"/>
</svg>
