<svg width="11" height="19" viewBox="0 0 11 19" fill="none" xmlns="http://www.w3.org/2000/svg">
<path d="M11 1.24224C11 1.10963 10.9473 0.982456 10.8536 0.888688C10.7598 0.794919 10.6326 0.742241 10.5 0.742241H8C6.74112 0.679532 5.5086 1.11763 4.57172 1.96082C3.63485 2.80401 3.06978 3.98374 3 5.24224V7.94224H0.5C0.367392 7.94224 0.240215 7.99492 0.146447 8.08869C0.0526785 8.18246 0 8.30964 0 8.44224V11.0422C0 11.1749 0.0526785 11.302 0.146447 11.3958C0.240215 11.4896 0.367392 11.5422 0.5 11.5422H3V18.2422C3 18.3749 3.05268 18.502 3.14645 18.5958C3.24021 18.6896 3.36739 18.7423 3.5 18.7423H6.5C6.63261 18.7423 6.75979 18.6896 6.85355 18.5958C6.94732 18.502 7 18.3749 7 18.2422V11.5422H9.62C9.73119 11.5438 9.83974 11.5083 9.92848 11.4413C10.0172 11.3743 10.0811 11.2796 10.11 11.1722L10.83 8.57224C10.8499 8.49837 10.8526 8.42091 10.8378 8.34583C10.8231 8.27076 10.7913 8.20007 10.7449 8.13921C10.6985 8.07836 10.6388 8.02895 10.5704 7.9948C10.5019 7.96065 10.4265 7.94267 10.35 7.94224H7V5.24224C7.02487 4.99472 7.14111 4.76535 7.32602 4.59894C7.51093 4.43252 7.75123 4.341 8 4.34224H10.5C10.6326 4.34224 10.7598 4.28956 10.8536 4.1958C10.9473 4.10203 11 3.97485 11 3.84224V1.24224Z" fill="#2F80ED"/>
</svg>
