<svg width="23" height="22" viewBox="0 0 23 22" fill="none" xmlns="http://www.w3.org/2000/svg">
<path d="M18.9996 14.4999C18.0831 14.5007 17.2034 14.8609 16.5496 15.5032L7.33297 11.3966V10.9999V10.6149L16.5496 6.49658C17.1269 7.06243 17.8823 7.41101 18.6874 7.48312C19.4926 7.55523 20.2978 7.34642 20.9665 6.89215C21.6351 6.43789 22.1259 5.76617 22.3555 4.9911C22.5851 4.21602 22.5393 3.38537 22.2259 2.64022C21.9125 1.89508 21.3509 1.28138 20.6364 0.903356C19.9218 0.525335 19.0985 0.406299 18.3062 0.566466C17.5138 0.726633 16.8013 1.15613 16.2898 1.782C15.7782 2.40788 15.499 3.19155 15.4996 3.99991V4.39658L6.28297 8.50324C5.79105 8.01996 5.16733 7.69275 4.49011 7.56271C3.81288 7.43266 3.11233 7.50557 2.4764 7.77229C1.84047 8.039 1.29749 8.48763 0.915642 9.06185C0.533791 9.63608 0.330078 10.3103 0.330078 10.9999C0.330078 11.6895 0.533791 12.3637 0.915642 12.938C1.29749 13.5122 1.84047 13.9608 2.4764 14.2275C3.11233 14.4942 3.81288 14.5672 4.49011 14.4371C5.16733 14.3071 5.79105 13.9799 6.28297 13.4966L15.4996 17.6149V17.9999C15.4996 18.6921 15.7049 19.3688 16.0895 19.9444C16.4741 20.52 17.0207 20.9686 17.6602 21.2335C18.2998 21.4984 19.0035 21.5677 19.6824 21.4327C20.3614 21.2976 20.985 20.9643 21.4745 20.4748C21.964 19.9853 22.2973 19.3617 22.4324 18.6827C22.5674 18.0038 22.4981 17.3001 22.2332 16.6605C21.9683 16.021 21.5197 15.4744 20.9441 15.0898C20.3686 14.7052 19.6919 14.4999 18.9996 14.4999ZM18.9996 2.83324C19.2304 2.83324 19.4559 2.90167 19.6478 3.02986C19.8397 3.15806 19.9892 3.34027 20.0775 3.55345C20.1658 3.76663 20.1889 4.0012 20.1439 4.22752C20.0989 4.45383 19.9878 4.66171 19.8246 4.82487C19.6614 4.98803 19.4536 5.09914 19.2272 5.14416C19.0009 5.18918 18.7663 5.16607 18.5532 5.07777C18.34 4.98947 18.1578 4.83993 18.0296 4.64808C17.9014 4.45622 17.833 4.23065 17.833 3.99991C17.833 3.69049 17.9559 3.39374 18.1747 3.17495C18.3935 2.95616 18.6902 2.83324 18.9996 2.83324ZM3.83297 12.1666C3.60222 12.1666 3.37666 12.0982 3.1848 11.97C2.99294 11.8418 2.84341 11.6596 2.75511 11.4464C2.6668 11.2332 2.6437 10.9986 2.68872 10.7723C2.73373 10.546 2.84485 10.3381 3.00801 10.175C3.17117 10.0118 3.37905 9.90068 3.60536 9.85566C3.83167 9.81064 4.06625 9.83375 4.27943 9.92205C4.49261 10.0104 4.67482 10.1599 4.80301 10.3517C4.93121 10.5436 4.99963 10.7692 4.99963 10.9999C4.99963 11.3093 4.87672 11.6061 4.65792 11.8249C4.43913 12.0437 4.14238 12.1666 3.83297 12.1666ZM18.9996 19.1666C18.7689 19.1666 18.5433 19.0982 18.3515 18.97C18.1596 18.8418 18.0101 18.6596 17.9218 18.4464C17.8335 18.2332 17.8104 17.9986 17.8554 17.7723C17.9004 17.546 18.0115 17.3381 18.1747 17.1749C18.3378 17.0118 18.5457 16.9007 18.772 16.8557C18.9983 16.8106 19.2329 16.8337 19.4461 16.9221C19.6593 17.0104 19.8415 17.1599 19.9697 17.3517C20.0979 17.5436 20.1663 17.7692 20.1663 17.9999C20.1663 18.3093 20.0434 18.6061 19.8246 18.8249C19.6058 19.0437 19.3091 19.1666 18.9996 19.1666Z" fill="#52575C"/>
</svg>
