<svg width="19" height="17" viewBox="0 0 19 17" fill="none" xmlns="http://www.w3.org/2000/svg">
<path d="M5.08029 15.9988C6.55898 16.0483 8.03259 15.8009 9.41403 15.2711C10.7955 14.7414 12.0567 13.9401 13.1232 12.9146C14.1897 11.8892 15.0398 10.6603 15.6233 9.30071C16.2067 7.9411 16.5118 6.47833 16.5203 4.99883C17.1979 4.16024 17.7011 3.19465 18.0003 2.15882C18.0226 2.07699 18.0208 1.99044 17.9951 1.9096C17.9694 1.82876 17.9208 1.75708 17.8553 1.70319C17.7898 1.6493 17.7101 1.6155 17.6258 1.60585C17.5416 1.59621 17.4563 1.61113 17.3803 1.64882C17.0258 1.81948 16.6266 1.8746 16.2391 1.80643C15.8516 1.73826 15.4953 1.55023 15.2203 1.26882C14.8692 0.884402 14.4446 0.574354 13.9715 0.357051C13.4985 0.139748 12.9866 0.0196102 12.4662 0.00375728C11.9459 -0.0120957 11.4276 0.0766584 10.9422 0.26476C10.4568 0.452862 10.0141 0.736485 9.64029 1.09882C9.12848 1.59448 8.75361 2.21412 8.5521 2.8975C8.35059 3.58088 8.32929 4.30478 8.49028 4.99883C5.14029 5.19883 2.84029 3.60883 1.00029 1.42882C0.945009 1.36623 0.872699 1.32108 0.792188 1.29889C0.711677 1.27671 0.626449 1.27845 0.546911 1.3039C0.467372 1.32935 0.396967 1.37742 0.344292 1.44222C0.291616 1.50702 0.258951 1.58576 0.250285 1.66882C-0.100245 3.61325 0.152615 5.61837 0.974904 7.4149C1.79719 9.21142 3.14953 10.7133 4.85029 11.7188C3.70992 13.0267 2.10849 13.8435 0.380286 13.9988C0.287698 14.0142 0.202227 14.0581 0.135837 14.1244C0.0694465 14.1908 0.0254586 14.2762 0.0100294 14.3688C-0.00539983 14.4614 0.00850193 14.5564 0.049789 14.6407C0.0910762 14.725 0.157682 14.7943 0.240285 14.8388C1.74381 15.5902 3.39952 15.987 5.08029 15.9988Z" fill="#2F80ED"/>
</svg>
