<svg width="28" height="28" viewBox="0 0 28 28" fill="none" xmlns="http://www.w3.org/2000/svg">
<path d="M14.0007 2.79982C7.81555 2.79982 2.80075 7.81462 2.80075 13.9998C2.80075 16.4526 3.59035 18.7234 4.93155 20.5686L3.39155 24.6174L7.83515 23.3518C9.60195 24.5194 11.7215 25.1998 14.0007 25.1998C20.1859 25.1998 25.2007 20.185 25.2007 13.9998C25.2007 7.81462 20.1859 2.79982 14.0007 2.79982ZM19.9536 18.6394L18.7607 19.8322C17.5063 21.0866 14.1799 19.7062 11.2316 16.7578C8.28035 13.8066 6.96155 10.4802 8.15435 9.22582L9.34715 8.03302C9.78675 7.59342 10.5399 7.59342 11.0412 8.03302L12.7995 9.79142C13.4267 10.4186 13.1747 11.4854 12.3599 11.7346C11.7943 11.925 11.4192 12.5522 11.6068 13.1178C11.9204 14.4338 13.6144 16.0662 14.8715 16.3798C15.4344 16.5058 16.0643 16.1922 16.2519 15.6266C16.5011 14.8118 17.5707 14.5598 18.1979 15.187L19.9536 16.9454C20.3932 17.385 20.3932 18.1382 19.9536 18.6394Z" fill="#4CAF50"/>
</svg>
